<svg xmlns="http://www.w3.org/2000/svg" xmlns:svg="http://www.w3.org/2000/svg" xmlns:xlink="http://www.w3.org/1999/xlink" version="1.0" height="629.9401869773865pt" width="842.3116278342605pt" viewBox="8.087423779368393 -32 850.3116278342605 635.9401869773865" ><defs><style type="text/css">
            @font-face {
                font-family: 'noto_regular';
                src: url('https://app.creately.com/diagram/assets/fonts/noto/noto-regular.woff') format('woff'),
                     url('https://app.creately.com/diagram/assets/fonts/noto/noto-regular.woff2') format('woff2');
                font-weight: normal;
                font-style: normal;
            }
        p {
            margin: 0;
        }
        </style></defs><defs><style>
            span{ display: inline-block; }
        </style></defs><g id="26atjq1eia"><g transform="translate(29.999999999999993 120.00000000000001)"><ellipse cx="12.0874237793684" cy="6.6905424105376" rx="6.0437118896842" ry="6.6905424105376" fill="rgba(255,255,255,1)" stroke="#5e5ca7" stroke-width="1.5" stroke-linecap="round" stroke-linejoin="round"/><path d="M 12.0874237793684,13.3810848210752 L 12.0874237793684,32.11460357058048 L 24.1748475587368,53.5243392843008 M 12.0874237793684,32.11460357058048 L 0,53.5243392843008 M 1.20874237793684,20.0716272316128 L 22.96610518079996,20.0716272316128" fill="none" stroke="#5e5ca7" stroke-width="1.5" stroke-linecap="round" stroke-linejoin="round"/><rect x="0" y="0" width="24.1748475587368" height="53.5243392843008" fill="rgba(255,255,255,0.01)" stroke="rgba(255,255,255,0.01)" stroke-width="1.5" stroke-linecap="round" stroke-linejoin="round"/></g><g transform="translate(13.087423779368393, 178.52433928430082) rotate(0, 29, 0)" width="58" height="19"><text text-decoration="none" x="1.5" fill="rgb(0, 0, 0)" font-size="9pt" font-family="Arial"  y="17">Customer</text><text text-decoration="none" x="56.5" fill="#4b4b4b" font-size="10pt" font-family="noto_regular"  y="17"></text></g></g><g id="2bfsz0bfni"><g transform="translate(230 -5)"><rect x="0" y="0" width="451.5789270401001" height="605.9401869773865" fill="rgba(255,255,255,1)" stroke="#000000" stroke-width="1.5" stroke-linecap="round" stroke-linejoin="round"/></g><g transform="translate(433.28946352005005, 5) rotate(0, 22.5, 0)" width="45" height="18"><text text-decoration="none" x="0.5" fill="rgb(84, 84, 84)" font-size="10pt" font-family="noto_regular"  y="17">System</text><text text-decoration="none" x="44.5" fill="#4b4b4b" font-size="10pt" font-family="noto_regular"  y="17"></text></g><g transform="translate(433.28946352005005, -29) rotate(0, 22.5, 19)" width="45" height="19"><text text-decoration="none" x="2" fill="rgb(0, 0, 0)" font-size="9pt" font-family="Arial"  y="17">System</text><text text-decoration="none" x="43" fill="#4b4b4b" font-size="10pt" font-family="noto_regular"  y="17"></text></g></g><g id="2p26s5q01a"><g transform="translate(265 50)"><ellipse cx="43.98684141039848" cy="24.219511479139328" rx="43.98684141039848" ry="24.219511479139328" fill="rgba(255,255,255,1)" stroke="#5e5ca7" stroke-width="1.5" stroke-linecap="round" stroke-linejoin="round"/></g><g transform="translate(292.4868414103985, 64.71951147913933) rotate(0, 16.5, 9.5)" width="33" height="19"><text text-decoration="none" x="1.5" fill="rgb(0, 0, 0)" font-size="9pt" font-family="Arial"  y="17">Login</text><text text-decoration="none" x="31.5" fill="#4b4b4b" font-size="10pt" font-family="noto_regular"  y="17"></text></g></g><g id="gmtdaiqmap"><g transform="translate(410 35)"><ellipse cx="62.20790994167328" cy="30.344378739595413" rx="62.20790994167328" ry="30.344378739595413" fill="rgba(255,255,255,1)" stroke="#5e5ca7" stroke-width="1.5" stroke-linecap="round" stroke-linejoin="round"/></g><g transform="translate(416.7079099416733, 48.34437873959541) rotate(0, 55.5, 17)" width="111" height="34"><text text-decoration="none" x="2.5" fill="rgb(0, 0, 0)" font-size="9pt" font-family="Arial"  y="13">Browse&#160;</text><text text-decoration="none" x="47.5" fill="rgb(0, 0, 0)" font-size="9pt" font-family="Arial"  y="13">for&#160;</text><text text-decoration="none" x="66.5" fill="rgb(0, 0, 0)" font-size="9pt" font-family="Arial"  y="13">desired&#160;</text><text text-decoration="none" x="43" fill="rgb(0, 0, 0)" font-size="9pt" font-family="Arial"  y="35">item</text><text text-decoration="none" x="68" fill="#4b4b4b" font-size="10pt" font-family="noto_regular"  y="35"></text></g></g><g id="1v9hrkn9rf"><g transform="translate(410 140)"><ellipse cx="59.03607165813446" cy="25.67720255255699" rx="59.03607165813446" ry="25.67720255255699" fill="rgba(255,255,255,1)" stroke="#5e5ca7" stroke-width="1.5" stroke-linecap="round" stroke-linejoin="round"/></g><g transform="translate(421.03607165813446, 148.677202552557) rotate(0, 48, 17)" width="96" height="34"><text text-decoration="none" x="4.5" fill="rgb(0, 0, 0)" font-size="9pt" font-family="Arial"  y="13">View&#160;</text><text text-decoration="none" x="33.5" fill="rgb(0, 0, 0)" font-size="9pt" font-family="Arial"  y="13">and&#160;</text><text text-decoration="none" x="57.5" fill="rgb(0, 0, 0)" font-size="9pt" font-family="Arial"  y="13">Select&#160;</text><text text-decoration="none" x="35.5" fill="rgb(0, 0, 0)" font-size="9pt" font-family="Arial"  y="35">item</text><text text-decoration="none" x="60.5" fill="#4b4b4b" font-size="10pt" font-family="noto_regular"  y="35"></text></g></g><g id="1ldqw96b4w"><g transform="translate(160 59.99999999999999)"><ellipse cx="12.899051613628863" cy="6.35047174924612" rx="6.449525806814432" ry="6.35047174924612" fill="rgba(255,255,255,1)" stroke="#5e5ca7" stroke-width="1.5" stroke-linecap="round" stroke-linejoin="round"/><path d="M 12.899051613628863,12.70094349849224 L 12.899051613628863,30.482264396381375 L 25.798103227257727,50.80377399396896 M 12.899051613628863,30.482264396381375 L 0,50.80377399396896 M 1.2899051613628865,19.051415247738362 L 24.50819806589484,19.051415247738362" fill="none" stroke="#5e5ca7" stroke-width="1.5" stroke-linecap="round" stroke-linejoin="round"/><rect x="0" y="0" width="25.798103227257727" height="50.80377399396896" fill="rgba(255,255,255,0.01)" stroke="rgba(255,255,255,0.01)" stroke-width="1.5" stroke-linecap="round" stroke-linejoin="round"/></g><g transform="translate(141.39905161362887, 115.80377399396895) rotate(0, 31.5, 0)" width="63" height="34"><text text-decoration="none" x="1.5" fill="rgb(0, 0, 0)" font-size="9pt" font-family="Arial"  y="13">Registered&#160;</text><text text-decoration="none" x="19" fill="rgb(0, 0, 0)" font-size="9pt" font-family="Arial"  y="35">user</text><text text-decoration="none" x="44" fill="#4b4b4b" font-size="10pt" font-family="noto_regular"  y="35"></text></g></g><g id="14aahm4wn4"><g><path d="M 55,145 L 150,100" fill="none" stroke="#5e5ca7" stroke-width="1.5" stroke-linecap="round" stroke-linejoin="round"/></g></g><g id="1jejzi00mn"><g transform="translate(150 200)"><ellipse cx="12.0874237793684" cy="6.6905424105376" rx="6.0437118896842" ry="6.6905424105376" fill="rgba(255,255,255,1)" stroke="#5e5ca7" stroke-width="1.5" stroke-linecap="round" stroke-linejoin="round"/><path d="M 12.0874237793684,13.3810848210752 L 12.0874237793684,32.11460357058048 L 24.1748475587368,53.5243392843008 M 12.0874237793684,32.11460357058048 L 0,53.5243392843008 M 1.20874237793684,20.0716272316128 L 22.96610518079996,20.0716272316128" fill="none" stroke="#5e5ca7" stroke-width="1.5" stroke-linecap="round" stroke-linejoin="round"/><rect x="0" y="0" width="24.1748475587368" height="53.5243392843008" fill="rgba(255,255,255,0.01)" stroke="rgba(255,255,255,0.01)" stroke-width="1.5" stroke-linecap="round" stroke-linejoin="round"/></g><g transform="translate(144.5874237793684, 258.52433928430077) rotate(0, 17.5, 0)" width="35" height="34"><text text-decoration="none" x="1" fill="rgb(0, 0, 0)" font-size="9pt" font-family="Arial"  y="13">Guest&#160;</text><text text-decoration="none" x="5" fill="rgb(0, 0, 0)" font-size="9pt" font-family="Arial"  y="35">user</text><text text-decoration="none" x="30" fill="#4b4b4b" font-size="10pt" font-family="noto_regular"  y="35"></text></g></g><g id="6712zt87yh"><g><path d="M 55,145 L 160,200" fill="none" stroke="#5e5ca7" stroke-width="1.5" stroke-linecap="round" stroke-linejoin="round"/></g></g><g id="ch46juxwh2"><g><path d="M 192,85 L 250,80" fill="none" stroke="#000000" stroke-width="1" stroke-linecap="round" stroke-linejoin="round"/></g></g><g id="w7ayjylnu1"><g><path d="M 352,102 L 352,102" fill="none" stroke="#000000" stroke-width="1" stroke-linecap="round" stroke-linejoin="round"/></g></g><g id="8d8132de4r"><g><path d="M 358.9,73.39999999999999 L 405,72.55" fill="none" stroke="#000000" stroke-width="1" stroke-linecap="round" stroke-linejoin="round"/></g></g><g id="7fx1fh2kul"><g transform="translate(415 225)"><ellipse cx="58.00000196695328" cy="27.999999344348907" rx="58.00000196695328" ry="27.999999344348907" fill="rgba(255,255,255,1)" stroke="#5e5ca7" stroke-width="1.5" stroke-linecap="round" stroke-linejoin="round"/></g><g transform="translate(423.0000019669533, 235.9999993443489) rotate(0, 50, 17)" width="100" height="34"><text text-decoration="none" x="5" fill="rgb(0, 0, 0)" font-size="9pt" font-family="Arial"  y="13">Add&#160;</text><text text-decoration="none" x="30" fill="rgb(0, 0, 0)" font-size="9pt" font-family="Arial"  y="13">to&#160;</text><text text-decoration="none" x="44" fill="rgb(0, 0, 0)" font-size="9pt" font-family="Arial"  y="13">shopping&#160;</text><text text-decoration="none" x="39" fill="rgb(0, 0, 0)" font-size="9pt" font-family="Arial"  y="35">cart</text><text text-decoration="none" x="61" fill="#4b4b4b" font-size="10pt" font-family="noto_regular"  y="35"></text></g></g><g id="4j1f1vht0g"><g transform="translate(420 320)"><ellipse cx="55.49999940395355" cy="30.5" rx="55.49999940395355" ry="30.5" fill="rgba(255,255,255,1)" stroke="#5e5ca7" stroke-width="1.5" stroke-linecap="round" stroke-linejoin="round"/></g><g transform="translate(443.49999940395355, 333.5) rotate(0, 32, 17)" width="64" height="34"><text text-decoration="none" x="2" fill="rgb(0, 0, 0)" font-size="9pt" font-family="Arial"  y="13">Proceed&#160;</text><text text-decoration="none" x="51" fill="rgb(0, 0, 0)" font-size="9pt" font-family="Arial"  y="13">to&#160;</text><text text-decoration="none" x="7" fill="rgb(0, 0, 0)" font-size="9pt" font-family="Arial"  y="35">checkout</text><text text-decoration="none" x="57" fill="#4b4b4b" font-size="10pt" font-family="noto_regular"  y="35"></text></g></g><g id="1iqc9asd9v"><g><path d="M 176,220 L 176,220" fill="none" stroke="#000000" stroke-width="1" stroke-linecap="round" stroke-linejoin="round"/></g></g><g id="2g98c9vpin"><g><path d="M 169,211 L 169,211" fill="none" stroke="#000000" stroke-width="1" stroke-linecap="round" stroke-linejoin="round"/></g></g><g id="1ecl3ax1nk"><g><path d="M 180,212 L 410,85" fill="none" stroke="#000000" stroke-width="1" stroke-linecap="round" stroke-linejoin="round"/></g></g><g id="8ybr237dke"><g transform="translate(795 120)"><ellipse cx="12.899051613628863" cy="8.22561087462306" rx="6.449525806814432" ry="8.22561087462306" fill="rgba(255,255,255,1)" stroke="#5e5ca7" stroke-width="1.5" stroke-linecap="round" stroke-linejoin="round"/><path d="M 12.899051613628863,16.45122174924612 L 12.899051613628863,39.48293219819069 L 25.798103227257727,65.80488699698448 M 12.899051613628863,39.48293219819069 L 0,65.80488699698448 M 1.2899051613628865,24.67683262386918 L 24.50819806589484,24.67683262386918" fill="none" stroke="#5e5ca7" stroke-width="1.5" stroke-linecap="round" stroke-linejoin="round"/><rect x="0" y="0" width="25.798103227257727" height="65.80488699698448" fill="rgba(255,255,255,0.01)" stroke="rgba(255,255,255,0.01)" stroke-width="1.5" stroke-linecap="round" stroke-linejoin="round"/></g><g transform="translate(763.8990516136289, 190.80488699698446) rotate(0, 44, 0)" width="88" height="34"><text text-decoration="none" x="16.5" fill="rgb(0, 0, 0)" font-size="9pt" font-family="Arial"  y="13">Customer&#160;</text><text text-decoration="none" x="4" fill="rgb(0, 0, 0)" font-size="9pt" font-family="Arial"  y="35">authentication</text><text text-decoration="none" x="84" fill="#4b4b4b" font-size="10pt" font-family="noto_regular"  y="35"></text></g></g><g id="4s62mitkva"><g><path d="M 535,345 L 755,190" fill="none" stroke="#000000" stroke-width="1" stroke-linecap="round" stroke-linejoin="round"/></g></g><g id="zexpjv6jgy"><g transform="translate(420 415)"><ellipse cx="50.36979603767395" cy="25.50000050663948" rx="50.36979603767395" ry="25.50000050663948" fill="rgba(255,255,255,1)" stroke="#5e5ca7" stroke-width="1.5" stroke-linecap="round" stroke-linejoin="round"/></g><g transform="translate(425.86979603767395, 431.0000005066395) rotate(0, 44.5, 9.5)" width="89" height="19"><text text-decoration="none" x="3" fill="rgb(0, 0, 0)" font-size="9pt" font-family="Arial"  y="17">Make&#160;</text><text text-decoration="none" x="37" fill="rgb(0, 0, 0)" font-size="9pt" font-family="Arial"  y="17">payment</text><text text-decoration="none" x="86" fill="#4b4b4b" font-size="10pt" font-family="noto_regular"  y="17"></text></g></g><g id="18nfll8d6r"><g><path d="M 520,440 L 750,310" fill="none" stroke="#5e5ca7" stroke-width="1.5" stroke-linecap="round" stroke-linejoin="round"/></g></g><g id="1x4bf9xt85"><g transform="translate(810 245)"><ellipse cx="12.899051613628863" cy="8.22561087462306" rx="6.449525806814432" ry="8.22561087462306" fill="rgba(255,255,255,1)" stroke="#5e5ca7" stroke-width="1.5" stroke-linecap="round" stroke-linejoin="round"/><path d="M 12.899051613628863,16.45122174924612 L 12.899051613628863,39.48293219819069 L 25.798103227257727,65.80488699698448 M 12.899051613628863,39.48293219819069 L 0,65.80488699698448 M 1.2899051613628865,24.67683262386918 L 24.50819806589484,24.67683262386918" fill="none" stroke="#5e5ca7" stroke-width="1.5" stroke-linecap="round" stroke-linejoin="round"/><rect x="0" y="0" width="25.798103227257727" height="65.80488699698448" fill="rgba(255,255,255,0.01)" stroke="rgba(255,255,255,0.01)" stroke-width="1.5" stroke-linecap="round" stroke-linejoin="round"/></g><g transform="translate(790.3990516136289, 315.80488699698446) rotate(0, 32.5, 0)" width="65" height="79"><text text-decoration="none" x="1.5" fill="rgb(0, 0, 0)" font-size="9pt" font-family="Arial"  y="13">Credit&#160;</text><text text-decoration="none" x="38.5" fill="rgb(0, 0, 0)" font-size="9pt" font-family="Arial"  y="13">card&#160;</text><text text-decoration="none" x="0.5" fill="rgb(0, 0, 0)" font-size="9pt" font-family="Arial"  y="31">processing&#160;</text><text text-decoration="none" x="64.5" fill="rgb(0, 0, 0)" font-size="9pt" font-family="Arial"  y="31"></text><text text-decoration="none" x="12.5" fill="rgb(0, 0, 0)" font-size="9pt" font-family="Arial"  y="53">system</text><text text-decoration="none" x="52.5" fill="#4b4b4b" font-size="10pt" font-family="noto_regular"  y="53"></text></g></g><g id="9rosvjbfpw"><g><path d="M 520,440 L 760,395" fill="none" stroke="#5e5ca7" stroke-width="1.5" stroke-linecap="round" stroke-linejoin="round"/></g></g><g id="1o6utn8ttt"><g transform="translate(785 365)"><ellipse cx="10.399235890120266" cy="7.6005644994974135" rx="5.199617945060133" ry="7.6005644994974135" fill="rgba(255,255,255,1)" stroke="#5e5ca7" stroke-width="1.5" stroke-linecap="round" stroke-linejoin="round"/><path d="M 10.399235890120266,15.201128998994827 L 10.399235890120266,36.482709597587586 L 20.798471780240533,60.80451599597931 M 10.399235890120266,36.482709597587586 L 0,60.80451599597931 M 1.0399235890120266,22.80169349849224 L 19.758548191228506,22.80169349849224" fill="none" stroke="#5e5ca7" stroke-width="1.5" stroke-linecap="round" stroke-linejoin="round"/><rect x="0" y="0" width="20.798471780240533" height="60.80451599597931" fill="rgba(255,255,255,0.01)" stroke="rgba(255,255,255,0.01)" stroke-width="1.5" stroke-linecap="round" stroke-linejoin="round"/></g><g transform="translate(776.3992358901203, 430.80451599597933) rotate(0, 19, 0)" width="38" height="19"><text text-decoration="none" x="0.5" fill="rgb(0, 0, 0)" font-size="9pt" font-family="Arial"  y="17">Paypal</text><text text-decoration="none" x="37.5" fill="#4b4b4b" font-size="10pt" font-family="noto_regular"  y="17"></text></g></g><g id="zn8qc7232j"><g transform="translate(420 500)"><ellipse cx="48.000002562999725" cy="30.5" rx="48.000002562999725" ry="30.5" fill="rgba(255,255,255,1)" stroke="#5e5ca7" stroke-width="1.5" stroke-linecap="round" stroke-linejoin="round"/></g><g transform="translate(426.5000025629997, 513.5) rotate(0, 41.5, 17)" width="83" height="34"><text text-decoration="none" x="10" fill="rgb(0, 0, 0)" font-size="9pt" font-family="Arial"  y="13">Review&#160;</text><text text-decoration="none" x="52" fill="rgb(0, 0, 0)" font-size="9pt" font-family="Arial"  y="13">and&#160;</text><text text-decoration="none" x="3" fill="rgb(0, 0, 0)" font-size="9pt" font-family="Arial"  y="35">confirm&#160;</text><text text-decoration="none" x="49" fill="rgb(0, 0, 0)" font-size="9pt" font-family="Arial"  y="35">order</text><text text-decoration="none" x="80" fill="#4b4b4b" font-size="10pt" font-family="noto_regular"  y="35"></text></g></g><g id="yqv05f2078"><g><path d="M 470,135 L 473.15,93.3" fill="none" stroke="#000000" stroke-width="1" stroke-linecap="round" stroke-linejoin="round"/><path d="M 470,135 L 477.0027166682084,128.5526409447142 M 470,135 L 464.0452828227003,127.57384198516142 Z" fill="rgb(255,255,255)" stroke="#000000" stroke-width="1" stroke-linecap="round" stroke-linejoin="round"/></g></g><g id="9r3ttw9dtz"><g><path d="M 468.54999999999995,196.8 L 471.84999999999997,230" fill="none" stroke="#000000" stroke-width="1" stroke-linecap="round" stroke-linejoin="round"/><path d="M 471.84999999999997,230 L 477.627244543861,222.43495373421896 M 471.84999999999997,230 L 464.69661380907826,223.72022727111005 Z" fill="rgb(255,255,255)" stroke="#000000" stroke-width="1" stroke-linecap="round" stroke-linejoin="round"/></g></g><g id="1fr76893tz"><g><path d="M 467,279 L 469,320" fill="none" stroke="#000000" stroke-width="1" stroke-linecap="round" stroke-linejoin="round"/><path d="M 469,320 L 475.1505192744018,312.735181201283 M 469,320 L 462.17160171741165,313.3682991308923 Z" fill="rgb(255,255,255)" stroke="#000000" stroke-width="1" stroke-linecap="round" stroke-linejoin="round"/></g></g><g id="2onpmmea3w"><g><path d="M 475,385 L 475,415" fill="none" stroke="#000000" stroke-width="1" stroke-linecap="round" stroke-linejoin="round"/><path d="M 475,415 L 481.49717514124296,408.04347826086956 M 475,415 L 468.50282485875704,408.04347826086956 Z" fill="rgb(255,255,255)" stroke="#000000" stroke-width="1" stroke-linecap="round" stroke-linejoin="round"/></g></g><g id="3pf8wjt2yf"><g transform="translate(210 0)"><rect x="0" y="0" width="150" height="37" fill="rgba(255,255,255,0.01)" stroke="rgba(255,255,255,0.01)" stroke-width="NaN" stroke-linecap="round" stroke-linejoin="round"/></g><g transform="translate(235, 1.5) rotate(0, 50, 17)" width="100" height="34"><text text-decoration="none" x="17" fill="rgb(0, 0, 0)" font-size="9pt" font-family="Arial"  y="13">subsystems</text><text text-decoration="none" x="83" fill="rgb(0, 0, 0)" font-size="9pt" font-family="Arial"  y="13"></text><text text-decoration="none" x="4.5" fill="rgb(0, 0, 0)" font-size="9pt" font-family="Arial"  y="35">Online&#160;</text><text text-decoration="none" x="43.5" fill="rgb(0, 0, 0)" font-size="9pt" font-family="Arial"  y="35">Shopping</text><text text-decoration="none" x="95.5" fill="#4b4b4b" font-size="10pt" font-family="noto_regular"  y="35"></text></g></g><g id="5wbdf6b8fb"><g><path d="M 468,473 L 468,473" fill="none" stroke="#000000" stroke-width="1" stroke-linecap="round" stroke-linejoin="round"/></g></g><g id="2nrbqq4bjs"><g><path d="M 477,463.95 L 477,463.95" fill="none" stroke="#000000" stroke-width="1" stroke-linecap="round" stroke-linejoin="round"/></g></g><g id="cl4dx59cmd"><g><path d="M 473.05,464.95 L 473.05,464.95" fill="none" stroke="#000000" stroke-width="1" stroke-linecap="round" stroke-linejoin="round"/></g></g><g id="29xwjwzyrv"><g><path d="M 466,461 L 466,461" fill="none" stroke="#000000" stroke-width="1" stroke-linecap="round" stroke-linejoin="round"/></g></g><g id="1pobopaf14"><g><path d="M 474,461 L 474,461" fill="none" stroke="#000000" stroke-width="1" stroke-linecap="round" stroke-linejoin="round"/></g></g><g id="6oidn65ds8"><g><path d="M 475,464.95 L 475,495" fill="none" stroke="#000000" stroke-width="1" stroke-linecap="round" stroke-linejoin="round"/><path d="M 475,495 L 481.49717514124296,488.04347826086956 M 475,495 L 468.50282485875704,488.04347826086956 Z" fill="rgb(255,255,255)" stroke="#000000" stroke-width="1" stroke-linecap="round" stroke-linejoin="round"/></g></g></svg>